<svg width="19" height="19" viewBox="0 0 19 19" fill="none" xmlns="http://www.w3.org/2000/svg">
<path d="M0 9.5C0 14.7468 4.25315 19 9.5 19C14.7468 19 19 14.7468 19 9.5C19 4.25315 14.7468 0 9.5 0C4.25315 0 0 4.25315 0 9.5ZM17.1 9.5C17.1 11.5156 16.2993 13.4487 14.874 14.874C13.4487 16.2993 11.5156 17.1 9.5 17.1C7.48435 17.1 5.55126 16.2993 4.12599 14.874C2.70071 13.4487 1.9 11.5156 1.9 9.5C1.9 7.48435 2.70071 5.55126 4.12599 4.12599C5.55126 2.70071 7.48435 1.9 9.5 1.9C11.5156 1.9 13.4487 2.70071 14.874 4.12599C16.2993 5.55126 17.1 7.48435 17.1 9.5ZM15.2 9.5C15.2011 10.2487 15.0542 10.9903 14.7678 11.682C14.4813 12.3738 14.061 13.0021 13.5308 13.5308L9.5 9.5V3.8C11.0117 3.8 12.4616 4.40053 13.5305 5.46949C14.5995 6.53845 15.2 7.98827 15.2 9.5Z" fill="#0F172A"/>
</svg>
